<svg width="111" height="110" viewBox="0 0 111 110" fill="none" xmlns="http://www.w3.org/2000/svg">
<path d="M59.0584 25.0707C69.875 29.7915 75.6042 41.3874 73.6334 52.5249C79.4542 57.5665 83.1667 65.0374 83.1667 73.3332V74.1124C84.5875 73.6082 86.1459 73.3332 87.75 73.3332C91.3968 73.3332 94.8941 74.7818 97.4728 77.3605C100.051 79.9391 101.5 83.4365 101.5 87.0832C101.5 90.7299 100.051 94.2273 97.4728 96.8059C94.8941 99.3845 91.3968 100.833 87.75 100.833H28.1667C23.3044 100.833 18.6412 98.9016 15.2031 95.4635C11.7649 92.0253 9.83334 87.3622 9.83334 82.4999C9.83334 77.6376 11.7649 72.9744 15.2031 69.5362C18.6412 66.0981 23.3044 64.1665 28.1667 64.1665H29.4042C23.5834 57.0624 21.75 46.9332 25.875 37.8582C31.4667 25.2082 46.3625 19.4332 59.0584 25.0707ZM55.3459 33.4582C47.2334 29.7915 37.7459 33.504 34.1709 41.5707C32.0625 46.2457 32.4292 51.4249 34.6292 55.5957C39.625 49.6374 47.2334 45.8332 55.6667 45.8332C58.875 45.8332 61.9917 46.3832 64.8334 47.3915C64.5584 41.5249 61.075 36.0249 55.3459 33.4582ZM62.7709 16.6832C60.25 15.5832 57.7292 14.804 55.1167 14.2999L66.5292 8.34155L70.6542 21.5874C68.3167 19.6624 65.7042 18.0124 62.7709 16.6832ZM28.5792 20.3499C26.3334 21.954 24.3625 23.7874 22.6667 25.804L23.1709 12.9249L36.7375 16.0415C33.8959 17.004 31.1459 18.4707 28.5792 20.3499ZM83.1667 44.504C82.7542 41.7999 82.1584 39.1874 81.2875 36.6665L92.1959 43.5415L82.8 53.7624C83.3042 50.7832 83.3959 47.6665 83.1667 44.504ZM14.6 51.7915C14.9208 54.5415 15.5167 57.154 16.3875 59.5832L5.52501 52.7082L14.875 42.5332C14.4167 45.5124 14.2792 48.629 14.6 51.7915ZM87.75 82.4999H74V73.3332C74 68.4709 72.0685 63.8077 68.6303 60.3696C65.1922 56.9314 60.529 54.9999 55.6667 54.9999C50.8044 54.9999 46.1412 56.9314 42.7031 60.3696C39.2649 63.8077 37.3334 68.4709 37.3334 73.3332H28.1667C25.7355 73.3332 23.404 74.299 21.6849 76.018C19.9658 77.7371 19 80.0687 19 82.4999C19 84.931 19.9658 87.2626 21.6849 88.9817C23.404 90.7007 25.7355 91.6665 28.1667 91.6665H87.75C88.9656 91.6665 90.1314 91.1836 90.991 90.3241C91.8505 89.4645 92.3334 88.2988 92.3334 87.0832C92.3334 85.8676 91.8505 84.7018 90.991 83.8423C90.1314 82.9827 88.9656 82.4999 87.75 82.4999Z" fill="#A08839"/>
</svg>
