<svg width="157" height="32" viewBox="0 0 157 32" fill="none" xmlns="http://www.w3.org/2000/svg">
<path d="M36.7512 25C36.4478 25 36.1823 24.8957 35.9547 24.6871C35.7461 24.4596 35.6418 24.1941 35.6418 23.8907V3.89422C35.6418 3.57185 35.7461 3.30637 35.9547 3.09777C36.1823 2.88918 36.4478 2.78489 36.7512 2.78489C37.2063 2.78489 37.5381 2.97452 37.7467 3.35378L46.849 21.4444L55.7805 3.35378C56.0081 2.97452 56.3399 2.78489 56.7761 2.78489C57.0795 2.78489 57.3355 2.88918 57.5441 3.09777C57.7527 3.30637 57.857 3.57185 57.857 3.89422V23.8907C57.857 24.1941 57.7527 24.4596 57.5441 24.6871C57.3355 24.8957 57.0795 25 56.7761 25C56.4537 25 56.1787 24.8957 55.9512 24.6871C55.7426 24.4596 55.6383 24.1941 55.6383 23.8907V7.79111L47.7307 23.9476C47.5221 24.3079 47.1998 24.488 46.7636 24.488C46.2895 24.488 45.9482 24.2604 45.7396 23.8053L37.8605 8.04711V23.8907C37.8605 24.1941 37.7467 24.4596 37.5192 24.6871C37.3106 24.8957 37.0546 25 36.7512 25ZM69.7025 25.1422C68.2424 25.1422 66.9339 24.8009 65.7772 24.1182C64.6204 23.4166 63.7007 22.4684 63.0181 21.2738C62.3544 20.0791 62.0225 18.7327 62.0225 17.2347C62.0225 15.7176 62.3638 14.3618 63.0465 13.1671C63.7481 11.9724 64.6963 11.0338 65.891 10.3511C67.0856 9.64948 68.432 9.29866 69.9301 9.29866C71.4281 9.29866 72.765 9.64948 73.9407 10.3511C75.1354 11.0338 76.0741 11.9724 76.7567 13.1671C77.4584 14.3618 77.8187 15.7176 77.8376 17.2347V23.9191C77.8376 24.2415 77.7333 24.507 77.5247 24.7156C77.3161 24.9052 77.0507 25 76.7283 25C76.4059 25 76.1404 24.9052 75.9318 24.7156C75.7233 24.507 75.619 24.2415 75.619 23.9191V22.184C74.9742 23.0942 74.1398 23.8148 73.1158 24.3458C72.0918 24.8767 70.9541 25.1422 69.7025 25.1422ZM69.9301 23.1511C71.0299 23.1511 72.0065 22.8951 72.8598 22.3831C73.7321 21.8711 74.4148 21.1695 74.9078 20.2782C75.4198 19.368 75.6758 18.3535 75.6758 17.2347C75.6758 16.0969 75.4198 15.0824 74.9078 14.1911C74.4148 13.2999 73.7321 12.5982 72.8598 12.0862C72.0065 11.5553 71.0299 11.2898 69.9301 11.2898C68.8492 11.2898 67.8726 11.5553 67.0003 12.0862C66.128 12.5982 65.4358 13.2999 64.9238 14.1911C64.4118 15.0824 64.1558 16.0969 64.1558 17.2347C64.1558 18.3535 64.4118 19.368 64.9238 20.2782C65.4358 21.1695 66.128 21.8711 67.0003 22.3831C67.8726 22.8951 68.8492 23.1511 69.9301 23.1511ZM88.4405 25.1707C87.0941 25.1707 85.89 24.8957 84.8281 24.3458C83.7661 23.7769 82.9223 22.952 82.2965 21.8711C81.6897 20.7902 81.3863 19.4723 81.3863 17.9173V10.5218C81.3863 10.2184 81.4906 9.96237 81.6992 9.75378C81.9078 9.54518 82.1638 9.44089 82.4672 9.44089C82.7895 9.44089 83.055 9.54518 83.2636 9.75378C83.4722 9.96237 83.5765 10.2184 83.5765 10.5218V17.9173C83.5765 19.6619 84.0601 20.9609 85.0272 21.8142C85.9943 22.6676 87.2079 23.0942 88.6681 23.0942C89.5973 23.0942 90.4316 22.9141 91.1712 22.5538C91.9297 22.1935 92.527 21.7004 92.9632 21.0747C93.3993 20.4489 93.6174 19.7378 93.6174 18.9413V10.5218C93.6174 10.1994 93.7122 9.94341 93.9018 9.75378C94.1104 9.54518 94.3759 9.44089 94.6983 9.44089C95.0207 9.44089 95.2861 9.54518 95.4947 9.75378C95.7033 9.94341 95.8076 10.1994 95.8076 10.5218V23.8907C95.8076 24.232 95.7033 24.507 95.4947 24.7156C95.2861 24.9052 95.0207 25 94.6983 25C94.3759 25 94.1104 24.9052 93.9018 24.7156C93.7122 24.507 93.6174 24.232 93.6174 23.8907V22.9236C92.9916 23.6252 92.2331 24.1751 91.3418 24.5733C90.4506 24.9716 89.4835 25.1707 88.4405 25.1707ZM105.927 25.1422C104.808 25.1422 103.699 24.9526 102.599 24.5733C101.499 24.1941 100.608 23.6252 99.9252 22.8667C99.7166 22.6391 99.6313 22.3831 99.6692 22.0987C99.7071 21.8142 99.8493 21.5677 100.096 21.3591C100.361 21.1695 100.636 21.0936 100.921 21.1316C101.205 21.1695 101.442 21.2927 101.632 21.5013C102.087 22.0323 102.684 22.44 103.424 22.7244C104.182 23.0089 105.017 23.1511 105.927 23.1511C107.33 23.1511 108.345 22.9141 108.971 22.44C109.596 21.947 109.919 21.3591 109.938 20.6764C109.938 19.9938 109.615 19.4344 108.971 18.9982C108.326 18.5431 107.264 18.1923 105.785 17.9458C103.869 17.6424 102.466 17.1114 101.575 16.3529C100.684 15.5944 100.238 14.6936 100.238 13.6507C100.238 12.6836 100.494 11.8776 101.006 11.2329C101.518 10.5881 102.201 10.1046 103.054 9.78222C103.907 9.45985 104.846 9.29866 105.87 9.29866C107.141 9.29866 108.231 9.51674 109.141 9.95289C110.07 10.389 110.819 10.9769 111.388 11.7164C111.578 11.963 111.654 12.219 111.616 12.4844C111.578 12.7499 111.426 12.968 111.161 13.1387C110.933 13.2714 110.668 13.3188 110.364 13.2809C110.08 13.224 109.833 13.0818 109.625 12.8542C108.696 11.7923 107.425 11.2613 105.813 11.2613C104.77 11.2613 103.936 11.4794 103.31 11.9156C102.684 12.3327 102.371 12.8637 102.371 13.5084C102.371 14.1532 102.646 14.6841 103.196 15.1013C103.765 15.5185 104.827 15.8599 106.382 16.1253C107.804 16.3529 108.923 16.6942 109.739 17.1493C110.573 17.5855 111.161 18.107 111.502 18.7138C111.862 19.3016 112.043 19.9464 112.043 20.648C112.043 21.5393 111.777 22.3262 111.246 23.0089C110.734 23.6726 110.013 24.1941 109.084 24.5733C108.174 24.9526 107.122 25.1422 105.927 25.1422ZM122.256 25.1422C120.796 25.1422 119.487 24.8009 118.331 24.1182C117.174 23.4166 116.254 22.4684 115.571 21.2738C114.908 20.0791 114.576 18.7327 114.576 17.2347C114.576 15.7176 114.917 14.3618 115.6 13.1671C116.301 11.9724 117.25 11.0338 118.444 10.3511C119.639 9.64948 120.985 9.29866 122.483 9.29866C123.981 9.29866 125.318 9.64948 126.494 10.3511C127.689 11.0338 128.627 11.9724 129.31 13.1671C130.012 14.3618 130.372 15.7176 130.391 17.2347V23.9191C130.391 24.2415 130.287 24.507 130.078 24.7156C129.869 24.9052 129.604 25 129.282 25C128.959 25 128.694 24.9052 128.485 24.7156C128.277 24.507 128.172 24.2415 128.172 23.9191V22.184C127.528 23.0942 126.693 23.8148 125.669 24.3458C124.645 24.8767 123.507 25.1422 122.256 25.1422ZM122.483 23.1511C123.583 23.1511 124.56 22.8951 125.413 22.3831C126.285 21.8711 126.968 21.1695 127.461 20.2782C127.973 19.368 128.229 18.3535 128.229 17.2347C128.229 16.0969 127.973 15.0824 127.461 14.1911C126.968 13.2999 126.285 12.5982 125.413 12.0862C124.56 11.5553 123.583 11.2898 122.483 11.2898C121.403 11.2898 120.426 11.5553 119.554 12.0862C118.681 12.5982 117.989 13.2999 117.477 14.1911C116.965 15.0824 116.709 16.0969 116.709 17.2347C116.709 18.3535 116.965 19.368 117.477 20.2782C117.989 21.1695 118.681 21.8711 119.554 22.3831C120.426 22.8951 121.403 23.1511 122.483 23.1511ZM135.333 25C134.992 25 134.717 24.9052 134.509 24.7156C134.319 24.507 134.224 24.2415 134.224 23.9191V10.5502C134.224 10.2278 134.319 9.96237 134.509 9.75378C134.717 9.54518 134.992 9.44089 135.333 9.44089C135.656 9.44089 135.912 9.54518 136.101 9.75378C136.31 9.96237 136.414 10.2278 136.414 10.5502V11.176C136.945 10.5692 137.571 10.1046 138.292 9.78222C139.012 9.44089 139.809 9.27022 140.681 9.27022C141.743 9.27022 142.682 9.50726 143.497 9.98133C144.331 10.4554 144.995 11.1096 145.488 11.944C146.019 11.1096 146.73 10.4554 147.621 9.98133C148.513 9.50726 149.508 9.27022 150.608 9.27022C151.727 9.27022 152.713 9.5357 153.566 10.0667C154.439 10.5976 155.112 11.3467 155.586 12.3138C156.079 13.2809 156.325 14.4187 156.325 15.7271V23.9191C156.325 24.2415 156.221 24.507 156.013 24.7156C155.823 24.9052 155.567 25 155.245 25C154.922 25 154.657 24.9052 154.448 24.7156C154.239 24.507 154.135 24.2415 154.135 23.9191V15.7271C154.135 14.3807 153.784 13.3188 153.083 12.5413C152.381 11.7449 151.48 11.3467 150.381 11.3467C149.205 11.3467 148.238 11.7449 147.479 12.5413C146.74 13.3188 146.379 14.3618 146.398 15.6702V15.7271V23.9191C146.398 24.2415 146.294 24.507 146.085 24.7156C145.896 24.9052 145.64 25 145.317 25C144.995 25 144.73 24.9052 144.521 24.7156C144.312 24.507 144.208 24.2415 144.208 23.9191V15.7271C144.208 14.3807 143.857 13.3188 143.156 12.5413C142.454 11.7449 141.553 11.3467 140.453 11.3467C139.278 11.3467 138.311 11.7354 137.552 12.5129C136.794 13.2714 136.414 14.267 136.414 15.4996V23.9191C136.414 24.2415 136.31 24.507 136.101 24.7156C135.912 24.9052 135.656 25 135.333 25Z" fill="#C85C5C"/>
<path d="M16.7335 5.06442C20.1146 6.49356 21.9054 10.004 21.2894 13.3756C23.1089 14.9019 24.2693 17.1635 24.2693 19.6749V19.9108C24.7135 19.7582 25.2006 19.6749 25.702 19.6749C26.8419 19.6749 27.9351 20.1135 28.7411 20.8941C29.5472 21.6747 30 22.7335 30 23.8375C30 24.9414 29.5472 26.0002 28.7411 26.7808C27.9351 27.5614 26.8419 28 25.702 28H7.07736C5.5575 28 4.09988 27.4153 3.02518 26.3744C1.95047 25.3336 1.3467 23.9219 1.3467 22.4499C1.3467 20.978 1.95047 19.5663 3.02518 18.5255C4.09988 17.4846 5.5575 16.8999 7.07736 16.8999H7.46418C5.6447 14.7493 5.07163 11.6829 6.36103 8.93558C8.10888 5.10605 12.765 3.35778 16.7335 5.06442ZM15.5731 7.60357C13.0373 6.49356 10.0716 7.61744 8.95415 10.0595C8.29513 11.4747 8.40974 13.0426 9.09742 14.3053C10.659 12.5015 13.0373 11.3499 15.6734 11.3499C16.6762 11.3499 17.6504 11.5164 18.5387 11.8216C18.4527 10.0456 17.3639 8.38057 15.5731 7.60357ZM17.894 2.52527C17.106 2.19227 16.3181 1.95639 15.5014 1.80377L19.0688 0L20.3582 4.00991C19.6275 3.42716 18.8109 2.92765 17.894 2.52527ZM7.2063 3.63528C6.5043 4.12091 5.88825 4.67592 5.35817 5.28642L5.51576 1.38751L9.75645 2.33102C8.86819 2.6224 8.0086 3.0664 7.2063 3.63528ZM24.2693 10.9475C24.1404 10.1288 23.9542 9.33796 23.6819 8.57483L27.0917 10.6561L24.1547 13.7502C24.3123 12.8484 24.341 11.9049 24.2693 10.9475ZM2.83668 13.1536C2.93696 13.9861 3.12321 14.777 3.39542 15.5124L0 13.4311L2.92264 10.3508C2.77937 11.2527 2.73639 12.1962 2.83668 13.1536ZM25.702 22.4499H21.404V19.6749C21.404 18.203 20.8002 16.7913 19.7255 15.7504C18.6508 14.7096 17.1932 14.1249 15.6734 14.1249C14.1535 14.1249 12.6959 14.7096 11.6212 15.7504C10.5465 16.7913 9.94269 18.203 9.94269 19.6749H7.07736C6.31743 19.6749 5.58862 19.9673 5.05127 20.4877C4.51392 21.0081 4.21203 21.714 4.21203 22.4499C4.21203 23.1859 4.51392 23.8918 5.05127 24.4122C5.58862 24.9326 6.31743 25.225 7.07736 25.225H25.702C26.082 25.225 26.4464 25.0788 26.7151 24.8186C26.9837 24.5584 27.1347 24.2055 27.1347 23.8375C27.1347 23.4695 26.9837 23.1166 26.7151 22.8563C26.4464 22.5961 26.082 22.4499 25.702 22.4499Z" fill="#C85C5C"/>
</svg>
