<svg width="110" height="112" viewBox="0 0 110 112" fill="none" xmlns="http://www.w3.org/2000/svg">
<path d="M41.25 56.1224C43.6792 56.7675 45.1458 59.3017 44.5042 61.7438L38.5458 83.9991C37.9042 86.4872 35.3833 87.9156 32.9542 87.2706C30.4792 86.6255 29.0583 84.0912 29.7917 81.6492L35.6583 59.3939C36.3 56.9057 38.8208 55.4773 41.25 56.1224ZM59.5833 56.1224C62.0125 56.7675 63.4791 59.3017 62.8375 61.7438L53.35 97.3615C52.7083 99.8957 50.1875 101.278 47.7125 100.633C45.2833 99.8957 43.8166 97.4536 44.4583 94.9654L53.9916 59.3939C54.6333 56.9057 57.1541 55.4773 59.5833 56.1224ZM77.9166 56.1224C80.3458 56.7675 81.8125 59.3017 81.1708 61.7438L75.2125 83.9991C74.5708 86.4872 72.05 87.9156 69.6208 87.2706C67.1458 86.6255 65.725 84.0912 66.4583 81.6492L72.325 59.3939C72.9666 56.9057 75.4875 55.4773 77.9166 56.1224ZM77.9166 46.907V42.2993C77.9166 36.1891 75.5022 30.3291 71.2045 26.0086C66.9068 21.688 61.0779 19.2607 55 19.2607C43.5417 19.2607 34.1458 27.6468 32.3583 38.567C30.8458 38.0141 29.1958 37.6916 27.5 37.6916C23.8533 37.6916 20.3559 39.1479 17.7773 41.7403C15.1986 44.3326 13.75 47.8486 13.75 51.5147C13.75 56.6293 16.5 61.0988 20.625 63.4948V63.4487C22.9167 64.7388 23.5583 67.6417 22.3208 69.7613C21.0375 71.9269 18.3333 72.7102 16.0417 71.42V71.4661C9.16666 67.5035 4.58333 60.039 4.58333 51.5147C4.58333 45.4045 6.99776 39.5446 11.2955 35.224C15.5932 30.9034 21.4221 28.4761 27.5 28.4761C32.0833 17.648 42.625 10.0453 55 10.0453C70.7208 10.0453 83.6 22.3018 84.7916 37.8298L87.0833 37.6916C91.9456 37.6916 96.6088 39.6334 100.047 43.0898C103.485 46.5463 105.417 51.2343 105.417 56.1224C105.417 63.034 101.75 68.8858 96.25 72.0651C93.9583 73.3092 91.2541 72.572 89.9708 70.3603C88.7333 68.1486 89.375 65.3378 91.6666 64.0477V64.0938C94.4166 62.5271 96.25 59.5321 96.25 56.1224C96.25 53.6783 95.2842 51.3344 93.5651 49.6061C91.846 47.8779 89.5145 46.907 87.0833 46.907H77.9166Z" fill="#7A9B9B"/>
</svg>
