<svg width="110" height="110" viewBox="0 0 110 110" fill="none" xmlns="http://www.w3.org/2000/svg">
<path d="M55 32.0833C61.0779 32.0833 66.9068 34.4977 71.2045 38.7954C75.5022 43.0931 77.9167 48.9221 77.9167 55C77.9167 61.0778 75.5022 66.9068 71.2045 71.2045C66.9068 75.5022 61.0779 77.9166 55 77.9166C48.9221 77.9166 43.0932 75.5022 38.7955 71.2045C34.4978 66.9068 32.0833 61.0778 32.0833 55C32.0833 48.9221 34.4978 43.0931 38.7955 38.7954C43.0932 34.4977 48.9221 32.0833 55 32.0833V32.0833ZM55 41.25C51.3533 41.25 47.8559 42.6986 45.2773 45.2772C42.6987 47.8559 41.25 51.3532 41.25 55C41.25 58.6467 42.6987 62.1441 45.2773 64.7227C47.8559 67.3013 51.3533 68.75 55 68.75C58.6467 68.75 62.1441 67.3013 64.7227 64.7227C67.3014 62.1441 68.75 58.6467 68.75 55C68.75 51.3532 67.3014 47.8559 64.7227 45.2772C62.1441 42.6986 58.6467 41.25 55 41.25ZM55 9.16663L65.9542 24.8416C62.5625 23.6041 58.85 22.9166 55 22.9166C51.15 22.9166 47.4375 23.6041 44.0458 24.8416L55 9.16663ZM15.3083 32.0833L34.375 30.4791C31.625 32.8166 29.15 35.6583 27.225 38.9583C25.2083 42.35 24.0625 45.8333 23.4208 49.4541L15.3083 32.0833ZM15.4 77.9166L23.4667 60.6375C24.1083 64.1666 25.3458 67.7416 27.2708 71.0416C29.1958 74.4333 31.6708 77.275 34.375 79.6125L15.4 77.9166ZM94.6458 32.0833L86.5333 49.4541C85.8917 45.8333 84.6542 42.3041 82.7292 38.9583C80.8042 35.6583 78.375 32.7708 75.625 30.4333L94.6458 32.0833ZM94.6 77.9166L75.625 79.5666C78.3292 77.2291 80.7583 74.3416 82.6833 71.0416C84.6083 67.6958 85.8458 64.1666 86.4875 60.5458L94.6 77.9166ZM55 100.833L43.9542 85.0666C47.3458 86.3041 51.0583 87.0833 55 87.0833C58.7583 87.0833 62.4708 86.3041 65.8625 85.0666L55 100.833Z" fill="#6C5B21"/>
</svg>
