<svg width="110" height="110" viewBox="0 0 110 110" fill="none" xmlns="http://www.w3.org/2000/svg">
<path d="M20.625 62.2875C22.9166 63.5708 23.5583 66.4583 22.3208 68.5666C21.0375 70.7666 18.3333 71.5 16.0416 70.2625C9.16665 66.3208 4.58331 58.8958 4.58331 50.4166C4.58331 44.3387 6.99774 38.5098 11.2954 34.2121C15.5932 29.9144 21.4221 27.5 27.5 27.5C32.0833 16.7291 42.625 9.16663 55 9.16663C70.7208 9.16663 83.6 21.3583 84.7916 36.8041L87.0833 36.6666C91.9456 36.6666 96.6087 38.5982 100.047 42.0363C103.485 45.4745 105.417 50.1377 105.417 55C105.417 59.8623 103.485 64.5254 100.047 67.9636C96.6087 71.4018 91.9456 73.3333 87.0833 73.3333C85.8677 73.3333 84.7019 72.8504 83.8424 71.9909C82.9828 71.1313 82.5 69.9655 82.5 68.75C82.5 67.5344 82.9828 66.3686 83.8424 65.5091C84.7019 64.6495 85.8677 64.1666 87.0833 64.1666C89.5144 64.1666 91.846 63.2009 93.5651 61.4818C95.2842 59.7627 96.25 57.4311 96.25 55C96.25 52.5688 95.2842 50.2372 93.5651 48.5182C91.846 46.7991 89.5144 45.8333 87.0833 45.8333H77.9166V41.25C77.9166 35.1721 75.5022 29.3431 71.2045 25.0454C66.9068 20.7477 61.0778 18.3333 55 18.3333C43.5416 18.3333 34.1458 26.675 32.3583 37.5375C30.8458 36.9875 29.1958 36.6666 27.5 36.6666C23.8532 36.6666 20.3559 38.1153 17.7773 40.6939C15.1986 43.2725 13.75 46.7699 13.75 50.4166C13.75 55.5041 16.5 59.95 20.625 62.3333V62.2875ZM43.5416 50.4166H57.2916L48.125 68.75H57.2916L40.1041 100.833L43.5416 77.9166H32.0833L43.5416 50.4166ZM80.2083 85.5708C80.2083 91.4833 75.625 96.25 69.8958 96.25C64.1666 96.25 59.5833 91.4833 59.5833 85.5708C59.5833 78.4666 69.8958 66.4583 69.8958 66.4583C69.8958 66.4583 80.2083 78.4666 80.2083 85.5708Z" fill="#617E7E"/>
</svg>
