<svg width="111" height="110" viewBox="0 0 111 110" fill="none" xmlns="http://www.w3.org/2000/svg">
<path d="M18.6667 45.8333C17.4511 45.8333 16.2853 45.3504 15.4258 44.4909C14.5662 43.6313 14.0833 42.4655 14.0833 41.25C14.0833 40.0344 14.5662 38.8686 15.4258 38.0091C16.2853 37.1495 17.4511 36.6666 18.6667 36.6666H55.3334C57.7645 36.6666 60.0961 35.7009 61.8152 33.9818C63.5342 32.2627 64.5 29.9311 64.5 27.5C64.5 25.0688 63.5342 22.7372 61.8152 21.0181C60.0961 19.2991 57.7645 18.3333 55.3334 18.3333C52.8125 18.3333 50.5209 19.3416 48.8709 21.0375C47.0834 22.9166 44.15 22.9166 42.3625 21.0375C40.575 19.25 40.575 16.3166 42.3625 14.5291C45.7084 11.2291 50.2917 9.16663 55.3334 9.16663C60.1957 9.16663 64.8588 11.0982 68.297 14.5363C71.7351 17.9745 73.6667 22.6377 73.6667 27.5C73.6667 32.3623 71.7351 37.0254 68.297 40.4636C64.8588 43.9018 60.1957 45.8333 55.3334 45.8333H18.6667ZM87.4167 55C88.6323 55 89.7981 54.5171 90.6576 53.6575C91.5171 52.798 92 51.6322 92 50.4166C92 49.2011 91.5171 48.0353 90.6576 47.1757C89.7981 46.3162 88.6323 45.8333 87.4167 45.8333C86.1334 45.8333 84.9875 46.3375 84.1625 47.1625C82.375 48.95 79.4875 48.95 77.7 47.1625C75.9584 45.375 75.9584 42.4875 77.7 40.7C80.175 38.225 83.6125 36.6666 87.4167 36.6666C91.0634 36.6666 94.5608 38.1153 97.1394 40.6939C99.718 43.2725 101.167 46.7699 101.167 50.4166C101.167 54.0634 99.718 57.5607 97.1394 60.1393C94.5608 62.718 91.0634 64.1666 87.4167 64.1666H23.25C22.0344 64.1666 20.8686 63.6837 20.0091 62.8242C19.1496 61.9647 18.6667 60.7989 18.6667 59.5833C18.6667 58.3677 19.1496 57.2019 20.0091 56.3424C20.8686 55.4828 22.0344 55 23.25 55H87.4167ZM82.8334 82.5H18.6667C17.4511 82.5 16.2853 82.0171 15.4258 81.1575C14.5662 80.298 14.0833 79.1322 14.0833 77.9166C14.0833 76.7011 14.5662 75.5353 15.4258 74.6757C16.2853 73.8162 17.4511 73.3333 18.6667 73.3333H82.8334C86.4801 73.3333 89.9775 74.7819 92.5561 77.3606C95.1347 79.9392 96.5834 83.4366 96.5834 87.0833C96.5834 90.73 95.1347 94.2274 92.5561 96.806C89.9775 99.3846 86.4801 100.833 82.8334 100.833C79.0292 100.833 75.5917 99.275 73.1167 96.8C71.375 95.0125 71.375 92.125 73.1167 90.3375C74.9042 88.55 77.7917 88.55 79.5792 90.3375C80.4042 91.1625 81.55 91.6666 82.8334 91.6666C84.0489 91.6666 85.2147 91.1837 86.0743 90.3242C86.9338 89.4647 87.4167 88.2989 87.4167 87.0833C87.4167 85.8677 86.9338 84.7019 86.0743 83.8424C85.2147 82.9828 84.0489 82.5 82.8334 82.5Z" fill="#729746"/>
</svg>
