<svg width="110" height="123" viewBox="0 0 110 123" fill="none" xmlns="http://www.w3.org/2000/svg">
<g filter="url(#filter0_d_102_28)">
<path d="M42.9167 118.75V92.835C40.0575 93.8692 37.0158 94.4167 33.7917 94.4167C18.5833 94.4167 6.41667 82.25 6.41667 67.0417C6.41667 59.3158 9.45833 52.3808 14.69 47.3925C13.2908 44.1075 12.5 40.4575 12.5 36.625C12.5 21.4167 24.6667 9.25 39.875 9.25C49.365 9.25 57.76 14.1167 62.6875 21.4167C63.1742 21.4167 63.6608 21.4167 64.2083 21.4167C68.6021 21.4167 72.9529 22.2821 77.0123 23.9635C81.0716 25.645 84.7601 28.1095 87.867 31.2164C90.9738 34.3233 93.4384 38.0117 95.1198 42.071C96.8012 46.1304 97.6667 50.4812 97.6667 54.875C97.6667 59.2688 96.8012 63.6196 95.1198 67.679C93.4384 71.7383 90.9738 75.4267 87.867 78.5336C84.7601 81.6405 81.0716 84.105 77.0123 85.7865C72.9529 87.4679 68.6021 88.3333 64.2083 88.3333C61.1667 88.3333 58.125 87.9075 55.0833 87.0558V118.75H42.9167Z" fill="#9B977A"/>
<path d="M54.5833 87.0558V118.25H43.4167V92.835V92.1225L42.7466 92.3648C39.9421 93.3792 36.958 93.9167 33.7917 93.9167C18.8595 93.9167 6.91667 81.9739 6.91667 67.0417C6.91667 59.451 9.90348 52.6473 15.035 47.7544L15.2858 47.5153L15.15 47.1966C13.7765 43.9719 13 40.3884 13 36.625C13 21.6928 24.9428 9.75 39.875 9.75C49.1905 9.75 57.4338 14.5271 62.2731 21.6964L62.4218 21.9167H62.6875H62.6904H62.6932H62.6961H62.6989H62.7018H62.7046H62.7075H62.7103H62.7132H62.716H62.7189H62.7217H62.7246H62.7274H62.7303H62.7331H62.736H62.7388H62.7417H62.7445H62.7474H62.7502H62.7531H62.7559H62.7588H62.7617H62.7645H62.7674H62.7702H62.7731H62.7759H62.7788H62.7816H62.7845H62.7873H62.7902H62.793H62.7959H62.7987H62.8016H62.8044H62.8073H62.8102H62.813H62.8159H62.8187H62.8216H62.8244H62.8273H62.8301H62.833H62.8358H62.8387H62.8416H62.8444H62.8473H62.8501H62.853H62.8558H62.8587H62.8616H62.8644H62.8673H62.8701H62.873H62.8758H62.8787H62.8816H62.8844H62.8873H62.8901H62.893H62.8958H62.8987H62.9016H62.9044H62.9073H62.9101H62.913H62.9159H62.9187H62.9216H62.9244H62.9273H62.9302H62.933H62.9359H62.9387H62.9416H62.9445H62.9473H62.9502H62.9531H62.9559H62.9588H62.9617H62.9645H62.9674H62.9702H62.9731H62.976H62.9788H62.9817H62.9846H62.9874H62.9903H62.9932H62.996H62.9989H63.0018H63.0046H63.0075H63.0104H63.0133H63.0161H63.019H63.0219H63.0247H63.0276H63.0305H63.0333H63.0362H63.0391H63.042H63.0448H63.0477H63.0506H63.0535H63.0563H63.0592H63.0621H63.065H63.0678H63.0707H63.0736H63.0765H63.0793H63.0822H63.0851H63.088H63.0908H63.0937H63.0966H63.0995H63.1024H63.1052H63.1081H63.111H63.1139H63.1168H63.1196H63.1225H63.1254H63.1283H63.1312H63.1341H63.1369H63.1398H63.1427H63.1456H63.1485H63.1514H63.1543H63.1572H63.16H63.1629H63.1658H63.1687H63.1716H63.1745H63.1774H63.1803H63.1832H63.1861H63.189H63.1918H63.1947H63.1976H63.2005H63.2034H63.2063H63.2092H63.2121H63.215H63.2179H63.2208H63.2237H63.2266H63.2295H63.2324H63.2353H63.2382H63.2411H63.244H63.2469H63.2498H63.2527H63.2556H63.2585H63.2614H63.2643H63.2673H63.2702H63.2731H63.276H63.2789H63.2818H63.2847H63.2876H63.2905H63.2934H63.2964H63.2993H63.3022H63.3051H63.308H63.3109H63.3138H63.3168H63.3197H63.3226H63.3255H63.3284H63.3313H63.3343H63.3372H63.3401H63.343H63.346H63.3489H63.3518H63.3547H63.3576H63.3606H63.3635H63.3664H63.3694H63.3723H63.3752H63.3781H63.3811H63.384H63.3869H63.3899H63.3928H63.3957H63.3987H63.4016H63.4045H63.4075H63.4104H63.4133H63.4163H63.4192H63.4222H63.4251H63.428H63.431H63.4339H63.4369H63.4398H63.4428H63.4457H63.4487H63.4516H63.4545H63.4575H63.4604H63.4634H63.4663H63.4693H63.4722H63.4752H63.4782H63.4811H63.4841H63.487H63.49H63.4929H63.4959H63.4988H63.5018H63.5048H63.5077H63.5107H63.5137H63.5166H63.5196H63.5225H63.5255H63.5285H63.5314H63.5344H63.5374H63.5403H63.5433H63.5463H63.5493H63.5522H63.5552H63.5582H63.5612H63.5641H63.5671H63.5701H63.5731H63.576H63.579H63.582H63.585H63.588H63.591H63.5939H63.5969H63.5999H63.6029H63.6059H63.6089H63.6119H63.6149H63.6178H63.6208H63.6238H63.6268H63.6298H63.6328H63.6358H63.6388H63.6418H63.6448H63.6478H63.6508H63.6538H63.6568H63.6598H63.6628H63.6658H63.6688H63.6718H63.6748H63.6779H63.6809H63.6839H63.6869H63.6899H63.6929H63.6959H63.6989H63.702H63.705H63.708H63.711H63.714H63.7171H63.7201H63.7231H63.7261H63.7292H63.7322H63.7352H63.7382H63.7413H63.7443H63.7473H63.7504H63.7534H63.7564H63.7595H63.7625H63.7655H63.7686H63.7716H63.7747H63.7777H63.7807H63.7838H63.7868H63.7899H63.7929H63.796H63.799H63.8021H63.8051H63.8082H63.8112H63.8143H63.8173H63.8204H63.8234H63.8265H63.8296H63.8326H63.8357H63.8387H63.8418H63.8449H63.8479H63.851H63.8541H63.8571H63.8602H63.8633H63.8663H63.8694H63.8725H63.8756H63.8786H63.8817H63.8848H63.8879H63.891H63.894H63.8971H63.9002H63.9033H63.9064H63.9095H63.9126H63.9156H63.9187H63.9218H63.9249H63.928H63.9311H63.9342H63.9373H63.9404H63.9435H63.9466H63.9497H63.9528H63.9559H63.959H63.9621H63.9652H63.9683H63.9715H63.9746H63.9777H63.9808H63.9839H63.987H63.9901H63.9933H63.9964H63.9995H64.0026H64.0058H64.0089H64.012H64.0151H64.0183H64.0214H64.0245H64.0277H64.0308H64.0339H64.0371H64.0402H64.0433H64.0465H64.0496H64.0528H64.0559H64.059H64.0622H64.0653H64.0685H64.0716H64.0748H64.0779H64.0811H64.0843H64.0874H64.0906H64.0937H64.0969H64.1H64.1032H64.1064H64.1095H64.1127H64.1159H64.119H64.1222H64.1254H64.1286H64.1317H64.1349H64.1381H64.1413H64.1444H64.1476H64.1508H64.154H64.1572H64.1604H64.1636H64.1667H64.1699H64.1731H64.1763H64.1795H64.1827H64.1859H64.1891H64.1923H64.1955H64.1987H64.2019H64.2051H64.2083C68.5365 21.9167 72.8223 22.7692 76.8209 24.4255C80.8196 26.0818 84.4529 28.5095 87.5134 31.5699C90.5739 34.6304 93.0016 38.2637 94.6579 42.2624C96.3142 46.2611 97.1667 50.5469 97.1667 54.875C97.1667 59.2032 96.3142 63.4889 94.6579 67.4876C93.0016 71.4863 90.5739 75.1196 87.5134 78.1801C84.4529 81.2405 80.8196 83.6682 76.8209 85.3245C72.8223 86.9808 68.5365 87.8333 64.2083 87.8333C61.214 87.8333 58.2176 87.4142 55.2181 86.5744L54.5833 86.3966V87.0558Z" stroke="#8C817A"/>
</g>
<defs>
<filter id="filter0_d_102_28" x="6.41667" y="9.25" width="99.25" height="117.5" filterUnits="userSpaceOnUse" color-interpolation-filters="sRGB">
<feFlood flood-opacity="0" result="BackgroundImageFix"/>
<feColorMatrix in="SourceAlpha" type="matrix" values="0 0 0 0 0 0 0 0 0 0 0 0 0 0 0 0 0 0 127 0" result="hardAlpha"/>
<feOffset dx="4" dy="4"/>
<feGaussianBlur stdDeviation="2"/>
<feComposite in2="hardAlpha" operator="out"/>
<feColorMatrix type="matrix" values="0 0 0 0 0.862745 0 0 0 0 0.784314 0 0 0 0 0.509804 0 0 0 1 0"/>
<feBlend mode="normal" in2="BackgroundImageFix" result="effect1_dropShadow_102_28"/>
<feBlend mode="normal" in="SourceGraphic" in2="effect1_dropShadow_102_28" result="shape"/>
</filter>
</defs>
</svg>
